<svg width="40" height="40" viewBox="0 0 40 40" fill="none" xmlns="http://www.w3.org/2000/svg">
<path fill-rule="evenodd" clip-rule="evenodd" d="M20 0C20.655 0 21.3085 0.0321018 21.9603 0.0963055C22.6122 0.160509 23.2594 0.256505 23.9018 0.384294C24.5442 0.512083 25.1789 0.67105 25.8057 0.861193C26.4325 1.05134 27.0485 1.27174 27.6537 1.52241C28.2588 1.77308 28.8503 2.0528 29.4279 2.36157C30.0056 2.67035 30.5668 3.0067 31.1114 3.37061C31.656 3.73452 32.1815 4.12425 32.6879 4.53979C33.1942 4.95533 33.679 5.39469 34.1421 5.85786C34.6053 6.32104 35.0447 6.80579 35.4602 7.31213C35.8757 7.81847 36.2655 8.34396 36.6294 8.88859C36.9933 9.43323 37.3296 9.99438 37.6384 10.5721C37.9472 11.1497 38.2269 11.7412 38.4776 12.3463C38.7283 12.9515 38.9487 13.5675 39.1388 14.1943C39.3289 14.8211 39.4879 15.4558 39.6157 16.0982C39.7435 16.7406 39.8395 17.3878 39.9037 18.0397C39.9679 18.6915 40 19.345 40 20C40 20.655 39.9679 21.3085 39.9037 21.9603C39.8395 22.6122 39.7435 23.2594 39.6157 23.9018C39.4879 24.5442 39.3289 25.1789 39.1388 25.8057C38.9487 26.4325 38.7283 27.0485 38.4776 27.6537C38.2269 28.2588 37.9472 28.8503 37.6384 29.4279C37.3296 30.0056 36.9933 30.5668 36.6294 31.1114C36.2655 31.656 35.8758 32.1815 35.4602 32.6879C35.0447 33.1942 34.6053 33.679 34.1421 34.1421C33.679 34.6053 33.1942 35.0447 32.6879 35.4602C32.1815 35.8757 31.656 36.2655 31.1114 36.6294C30.5668 36.9933 30.0056 37.3296 29.4279 37.6384C28.8503 37.9472 28.2588 38.2269 27.6537 38.4776C27.0485 38.7283 26.4325 38.9487 25.8057 39.1388C25.1789 39.3289 24.5442 39.4879 23.9018 39.6157C23.2594 39.7435 22.6122 39.8395 21.9603 39.9037C21.3085 39.9679 20.655 40 20 40C19.345 40 18.6915 39.9679 18.0397 39.9037C17.3878 39.8395 16.7406 39.7435 16.0982 39.6157C15.4558 39.4879 14.8211 39.3289 14.1943 39.1388C13.5675 38.9487 12.9515 38.7283 12.3463 38.4776C11.7412 38.2269 11.1497 37.9472 10.5721 37.6384C9.99438 37.3296 9.43323 36.9933 8.88859 36.6294C8.34396 36.2655 7.81847 35.8758 7.31213 35.4602C6.80579 35.0447 6.32104 34.6053 5.85786 34.1421C5.39469 33.679 4.95533 33.1942 4.53979 32.6879C4.12425 32.1815 3.73452 31.656 3.37061 31.1114C3.0067 30.5668 2.67035 30.0056 2.36157 29.4279C2.0528 28.8503 1.77308 28.2588 1.52241 27.6537C1.27174 27.0485 1.05134 26.4325 0.861193 25.8057C0.67105 25.1789 0.512083 24.5442 0.384294 23.9018C0.256505 23.2594 0.160509 22.6122 0.0963055 21.9603C0.0321018 21.3085 0 20.655 0 20C0 19.345 0.0321018 18.6915 0.0963055 18.0397C0.160509 17.3878 0.256505 16.7406 0.384294 16.0982C0.512083 15.4558 0.67105 14.8211 0.861193 14.1943C1.05134 13.5675 1.27174 12.9515 1.52241 12.3463C1.77308 11.7412 2.0528 11.1497 2.36157 10.5721C2.67035 9.99438 3.0067 9.43323 3.37061 8.88859C3.73452 8.34396 4.12425 7.81847 4.53979 7.31213C4.95533 6.80579 5.39469 6.32104 5.85786 5.85786C6.32104 5.39469 6.80579 4.95533 7.31213 4.53979C7.81847 4.12425 8.34396 3.73452 8.88859 3.37061C9.43323 3.0067 9.99438 2.67035 10.5721 2.36157C11.1497 2.0528 11.7412 1.77308 12.3463 1.52241C12.9515 1.27174 13.5675 1.05134 14.1943 0.861193C14.8211 0.67105 15.4558 0.512083 16.0982 0.384294C16.7406 0.256505 17.3878 0.160509 18.0397 0.0963055C18.6915 0.0321018 19.345 0 20 0Z" fill="#585C74"/>
<path fill-rule="evenodd" clip-rule="evenodd" d="M9.50739 26.6662C11.1088 26.0584 12.1695 24.5258 12.174 22.8129L12.174 21.4796C12.174 19.1821 10.3116 17.3196 8.01406 17.3196C5.71657 17.3196 3.85408 19.1821 3.85408 21.4796V22.8129C3.85866 24.5258 4.91928 26.0584 6.52074 26.6662C4.85726 26.8892 3.30978 27.6419 2.10742 28.8129C4.73448 34.1823 9.62556 38.0952 15.4407 39.4795V32.1462C15.3874 29.4262 12.8674 27.1995 9.50739 26.6662Z" fill="#81849B"/>
<path fill-rule="evenodd" clip-rule="evenodd" d="M37.9206 28.8262C36.72 27.6503 35.1724 26.8929 33.5073 26.6662C35.1087 26.0584 36.1693 24.5258 36.1739 22.8129L36.1739 21.4796C36.1739 19.1821 34.3114 17.3196 32.0139 17.3196C29.7164 17.3196 27.8539 19.1821 27.8539 21.4796V22.8129C27.8585 24.5258 28.9191 26.0584 30.5206 26.6662C27.1606 27.1862 24.6406 29.4129 24.6406 32.0929V39.4262C30.4228 38.0424 35.2895 34.1578 37.9206 28.8262H37.9206Z" fill="#81849B"/>
<path fill-rule="evenodd" clip-rule="evenodd" d="M21.2534 23.0395C23.7394 22.4616 25.5075 20.2583 25.5334 17.7062V16.1996C25.5334 13.1436 23.0561 10.6663 20.0001 10.6663C16.9442 10.6663 14.4668 13.1436 14.4668 16.1996L14.4668 17.7062C14.4928 20.2583 16.2609 22.4616 18.7468 23.0395C13.8935 23.5062 10.1602 26.5995 10.1602 30.3595V37.3995C16.2621 40.8662 23.7381 40.8662 29.8401 37.3995L29.8401 30.3595C29.8401 26.6662 26.1068 23.5062 21.2534 23.0395Z" fill="#ACAEBE"/>
</svg>
